<?xml version="1.0" standalone="no"?>
<!DOCTYPE svg PUBLIC "-//W3C//DTD SVG 20010904//EN"
 "http://www.w3.org/TR/2001/REC-SVG-20010904/DTD/svg10.dtd">
<svg version="1.0" xmlns="http://www.w3.org/2000/svg"
 width="1259.000000pt" height="1280.000000pt" viewBox="0 0 1259.000000 1280.000000"
 preserveAspectRatio="xMidYMid meet">
<metadata>
Created by potrace 1.15, written by Peter Selinger 2001-2017
</metadata>
<g transform="translate(0.000000,1280.000000) scale(0.100000,-0.100000)"
fill="#03a9f4" stroke="none">
<path d="M1390 12785 c-649 -89 -1179 -563 -1341 -1197 -51 -202 -49 70 -49
-5188 0 -5258 -2 -4986 49 -5188 167 -652 719 -1131 1387 -1202 81 -8 1325
-10 4934 -8 l4825 3 100 23 c342 79 583 210 821 447 236 235 371 486 446 825
l23 105 0 4995 0 4995 -23 105 c-75 339 -210 590 -446 825 -237 236 -475 367
-806 443 l-115 27 -4855 1 c-3954 2 -4873 0 -4950 -11z m9842 -134 c312 -54
564 -186 794 -415 229 -230 361 -482 415 -794 19 -112 19 -207 19 -5042 0
-4835 0 -4930 -19 -5042 -54 -312 -186 -564 -415 -794 -230 -229 -482 -361
-794 -415 -112 -19 -206 -19 -4937 -19 -4731 0 -4825 0 -4937 19 -312 54 -565
186 -794 415 -229 230 -362 483 -415 796 -19 113 -19 193 -16 5080 l2 4965 22
92 c74 308 192 524 407 739 226 226 480 360 786 414 101 18 274 18 4937 19
4741 1 4833 1 4945 -18z"/>
<path d="M1480 12179 c-447 -57 -804 -418 -860 -869 -14 -118 -14 -9702 0
-9820 56 -457 420 -818 875 -870 125 -14 9475 -14 9600 0 457 52 823 418 875
875 14 125 14 9685 0 9810 -52 457 -418 823 -875 875 -110 12 -9517 12 -9615
-1z"/>
</g>
</svg>
